<?xml version="1.0" encoding="UTF-8" standalone="no"?>
<!-- Created with Inkscape (http://www.inkscape.org/) -->

<svg
   width="210mm"
   height="297mm"
   viewBox="0 0 210 297"
   version="1.1"
   id="svg2280"
   inkscape:version="1.2 (dc2aeda, 2022-05-15)"
   sodipodi:docname="logo_midas.svg"
   xmlns:inkscape="http://www.inkscape.org/namespaces/inkscape"
   xmlns:sodipodi="http://sodipodi.sourceforge.net/DTD/sodipodi-0.dtd"
   xmlns="http://www.w3.org/2000/svg"
   xmlns:svg="http://www.w3.org/2000/svg">
  <sodipodi:namedview
     id="namedview2282"
     pagecolor="#ffffff"
     bordercolor="#000000"
     borderopacity="0.25"
     inkscape:showpageshadow="2"
     inkscape:pageopacity="0.0"
     inkscape:pagecheckerboard="0"
     inkscape:deskcolor="#d1d1d1"
     inkscape:document-units="mm"
     showgrid="false"
     inkscape:zoom="0.2102413"
     inkscape:cx="-145.0714"
     inkscape:cy="587.42026"
     inkscape:window-width="1309"
     inkscape:window-height="699"
     inkscape:window-x="0"
     inkscape:window-y="25"
     inkscape:window-maximized="0"
     inkscape:current-layer="layer1" />
  <defs
     id="defs2277">
    <clipPath
       clipPathUnits="userSpaceOnUse"
       id="clipPath322">
      <path
         d="M 0,566.929 H 566.929 V 0 H 0 Z"
         id="path320" />
    </clipPath>
    <clipPath
       clipPathUnits="userSpaceOnUse"
       id="clipPath322-3">
      <path
         d="M 0,566.929 H 566.929 V 0 H 0 Z"
         id="path320-9" />
    </clipPath>
  </defs>
  <g
     inkscape:label="Layer 1"
     inkscape:groupmode="layer"
     id="layer1">
    <g
       id="g318"
       clip-path="url(#clipPath322-3)"
       transform="matrix(0.35277777,0,0,-0.35277777,4.4533629,248.49985)">
      <g
         id="g324"
         transform="translate(144.0453,312.5467)">
        <path
           d="m 0,0 -26.938,-26.939 c -0.886,-0.887 -0.886,-2.329 0,-3.216 0.857,-0.858 2.358,-0.858 3.215,0 l 4.262,4.261 c 0.954,0.954 2.221,1.479 3.57,1.479 1.348,0 2.617,-0.525 3.571,-1.479 1.967,-1.968 1.967,-5.171 0,-7.14 l -25.464,-25.463 c -0.887,-0.885 -0.887,-2.328 0,-3.213 0.884,-0.885 2.328,-0.887 3.213,0 l 20.029,20.029 c 0.542,0.541 1.421,0.541 1.963,0 0.541,-0.541 0.541,-1.421 0,-1.962 l -20.002,-20.001 c -0.9,-0.902 -0.9,-2.368 0,-3.271 0.874,-0.874 2.397,-0.871 3.27,0 l 20.002,20.001 c 0.543,0.541 1.421,0.54 1.961,0 0.541,-0.541 0.541,-1.42 0,-1.961 l -20.086,-20.087 c -0.854,-0.854 -0.854,-2.245 0,-3.1 0.855,-0.854 2.246,-0.854 3.099,0 l 20.088,20.087 c 0.523,0.523 1.434,0.526 1.961,0 0.263,-0.262 0.406,-0.61 0.406,-0.981 0,-0.371 -0.143,-0.719 -0.406,-0.981 l -20.013,-20.014 c -0.433,-0.432 -0.673,-1.009 -0.673,-1.622 0,-0.613 0.24,-1.189 0.673,-1.623 0.433,-0.433 1.01,-0.673 1.623,-0.673 0.613,0 1.189,0.24 1.623,0.673 l 48.125,48.125 z"
           style="fill:#e3ba75;fill-opacity:1;fill-rule:nonzero;stroke:none"
           id="path326" />
      </g>
      <g
         id="g328"
         transform="translate(130.2963,282.9524)">
        <path
           d="m 0,0 c 0,0.607 -0.236,1.178 -0.666,1.607 -0.855,0.856 -2.354,0.86 -3.215,0 l -4.261,-4.261 c -1.968,-1.97 -5.171,-1.969 -7.14,0 -1.968,1.968 -1.968,5.171 0,7.14 l 25.463,25.463 c 0.885,0.886 0.885,2.328 0,3.213 -0.856,0.857 -2.356,0.859 -3.214,0 L -13.062,13.133 c -0.541,-0.539 -1.418,-0.542 -1.961,0 -0.541,0.541 -0.541,1.421 0,1.962 l 20,20.001 c 0.436,0.437 0.676,1.017 0.676,1.635 0,0.619 -0.24,1.199 -0.676,1.636 -0.437,0.437 -1.016,0.677 -1.634,0.677 H 3.342 C 2.725,39.043 2.143,38.803 1.706,38.366 l -20,-20 c -0.542,-0.541 -1.421,-0.541 -1.963,0 -0.54,0.541 -0.54,1.421 0,1.962 l 20.088,20.086 c 0.854,0.855 0.854,2.245 0,3.1 -0.83,0.827 -2.274,0.827 -3.101,0 L -23.355,23.427 c -0.542,-0.541 -1.421,-0.54 -1.963,0 -0.263,0.262 -0.407,0.611 -0.407,0.981 0,0.371 0.144,0.719 0.407,0.982 l 20.014,20.013 c 0.894,0.894 0.894,2.35 0,3.245 -0.868,0.868 -2.381,0.866 -3.246,0 L -56.675,0.523 -27.604,-28.548 -0.666,-1.608 C -0.236,-1.179 0,-0.607 0,0"
           style="fill:#e3ba75;fill-opacity:1;fill-rule:nonzero;stroke:none"
           id="path330" />
      </g>
      <g
         id="g332"
         transform="translate(229.8851,316.8538)">
        <path
           d="M 0,0 C 0.098,0.197 0.195,0.343 0.688,0.343 3.048,0.246 6.834,-0.491 8.604,-1.23 9.146,-1.476 9.342,-1.918 9.293,-2.556 L 9.097,-5.557 v -29.061 c 0,-3.246 -0.689,-9.293 -1.868,-12.637 H 4.032 c -0.344,1.819 -0.639,8.556 -0.639,10.866 v 31.766 c -0.689,1.131 -2.262,2.213 -3.984,2.902 z m -20.211,-27.487 c 2.656,-0.051 6.884,0 9.048,0.097 l 0.982,0.295 0.1,14.113 c -3.246,0 -7.131,-0.049 -10.277,-0.098 z m 12.638,19.128 c 0.295,0.147 0.737,0.147 1.082,0 0.786,-0.345 2.359,-1.131 2.999,-1.574 0.246,-0.148 0.295,-0.394 0.148,-0.787 l -0.688,-2.262 c -0.149,-4.426 -0.689,-9.933 -1.28,-14.162 l 0.983,-0.491 c 0.297,-0.148 0.493,-0.443 0.493,-0.738 0,-1.082 -0.393,-2.115 -0.787,-2.507 l -15.735,-0.197 c -0.198,-0.885 -0.591,-1.574 -1.082,-2.312 h -3.197 c -0.393,1.033 -0.591,2.509 -0.737,3.786 l -0.934,17.015 c -0.542,0.688 -1.574,1.328 -2.656,1.721 l 0.394,1.524 c 0.049,0.197 0.246,0.296 0.59,0.296 2.015,0 5.556,-0.246 7.573,-0.591 2.605,-0.049 8.162,0 10.719,0.197 z"
           style="fill:#424242;fill-opacity:1;fill-rule:nonzero;stroke:none"
           id="path334" />
      </g>
      <g
         id="g336"
         transform="translate(287.6674,297.7747)">
        <path
           d="M 0,0 C 1.427,0.048 3.54,-0.049 4.426,-0.246 5.017,-0.345 5.408,-0.786 5.459,-1.328 5.557,-2.459 5.262,-3.541 4.868,-3.933 4.574,-4.278 3.935,-4.426 3.443,-4.426 l -7.721,-0.197 v -10.916 c 0,-3.246 -0.689,-9.293 -1.868,-12.637 h -3.197 c -0.345,1.82 -0.591,8.556 -0.591,10.866 v 6.54 c -6.294,-2.113 -14.112,-3.638 -19.521,-4.129 -0.737,-0.1 -1.475,-0.1 -2.017,-0.1 -2.359,0 -3.981,1.328 -4.67,3.393 -0.148,0.591 -0.296,1.574 -0.296,2.656 V 6.639 c -0.688,0.786 -1.868,1.523 -3.196,1.965 l 0.394,1.525 c 0.097,0.197 0.246,0.295 0.59,0.295 1.818,0 5.95,-0.195 7.818,-0.54 1.868,0.049 7.031,0.294 8.557,0.442 l 1.475,0.983 c 1.377,0 3.59,-0.098 4.672,-0.343 0.54,-0.099 0.835,-0.443 0.835,-0.985 0,-1.229 -0.344,-2.162 -0.688,-2.556 C -16.228,7.228 -16.522,7.13 -16.916,7.13 L -30.684,6.588 V -9.245 c 0,-0.639 0.246,-0.983 0.934,-0.934 5.409,0.098 13.769,1.082 19.816,2.606 v 22.029 c -0.736,1.131 -2.261,2.213 -4.032,2.902 l 0.591,1.721 c 0.098,0.197 0.246,0.343 0.737,0.343 2.311,-0.097 6.098,-0.834 7.868,-1.573 0.541,-0.245 0.738,-0.688 0.738,-1.326 L -4.278,13.522 V -1.18 l 2.704,0.146 z"
           style="fill:#424242;fill-opacity:1;fill-rule:nonzero;stroke:none"
           id="path338" />
      </g>
      <g
         id="g340"
         transform="translate(297.6049,289.513)">
        <path
           d="m 0,0 c -0.146,0.197 -0.049,0.394 0.147,0.542 8.606,4.966 14.851,11.407 17.604,17.849 -0.442,0.885 -1.573,1.967 -2.753,2.607 l 0.885,1.425 c 0.148,0.246 0.344,0.346 0.786,0.246 2.41,-0.394 5.803,-1.524 7.229,-2.41 0.59,-0.343 0.884,-0.786 0.884,-1.228 0,-0.541 -0.097,-1.033 -0.294,-1.377 -0.737,-1.622 -1.721,-3.246 -2.95,-4.869 L 30.34,8.31 33.684,7.917 C 35.012,7.082 36.831,5.606 37.618,4.77 38.307,4.032 38.65,3.443 38.602,2.95 38.553,1.918 37.52,1.033 36.585,1.033 36.094,0.984 35.354,1.279 34.766,1.623 L 19.228,10.081 C 14.85,5.508 8.604,1.476 1.376,-1.082 1.082,-1.18 0.885,-1.18 0.736,-1.032 Z m 35.257,-6.834 c 2.065,-0.1 5.015,-0.492 6.246,-0.935 0.491,-0.197 0.836,-0.59 0.836,-1.13 0,-1.231 -0.836,-2.362 -1.476,-2.657 -1.279,0.149 -4.672,0.246 -6.245,0.246 -3.393,0 -23.75,-0.196 -26.651,-0.393 -1.328,-0.098 -4.279,-0.64 -5.607,-1.032 -1.966,0.737 -4.131,2.212 -5.507,3.54 -0.198,0.147 -0.247,0.442 -0.147,0.639 l 0.442,0.885 c 1.917,-0.344 4.474,-0.54 6.294,-0.589 3.245,-0.051 26.209,0.245 29.702,0.491 z"
           style="fill:#424242;fill-opacity:1;fill-rule:nonzero;stroke:none"
           id="path342" />
      </g>
      <g
         id="g344"
         transform="translate(395.0229,299.5935)">
        <path
           d="M 0,0 C 1.426,0.049 3.541,-0.049 4.426,-0.246 5.016,-0.343 5.409,-0.786 5.458,-1.328 5.557,-2.458 5.261,-3.541 4.867,-3.933 4.572,-4.278 3.934,-4.426 3.441,-4.426 l -7.719,-0.195 v -1.967 c 0,-3.836 -0.689,-8.999 -1.869,-11.901 h -3.197 c -0.391,1.868 -0.589,7.769 -0.589,10.228 v 20.949 c -0.688,1.081 -2.213,2.163 -3.885,2.802 l 0.59,1.77 c 0.098,0.197 0.246,0.344 0.737,0.344 2.312,-0.098 6,-0.835 7.721,-1.574 0.492,-0.245 0.738,-0.688 0.689,-1.326 L -4.278,11.803 V -1.131 l 2.705,0.148 z m -25.719,-10.326 c 2.804,0 5.017,1.672 5.017,4.523 0,2.853 -2.213,4.524 -5.017,4.524 -2.802,0 -5.014,-1.671 -5.014,-4.524 0,-2.851 2.212,-4.523 5.014,-4.523 m 19.032,-13.768 c 1.671,0.049 4.081,-0.149 5.211,-0.444 0.591,-0.097 0.885,-0.491 0.885,-0.982 0,-1.378 -0.442,-2.361 -0.786,-2.704 -0.196,-0.248 -0.542,-0.297 -0.885,-0.297 l -20.456,-0.196 c -3.738,0.05 -5.163,1.475 -5.163,4.425 v 4.033 c -0.788,0.688 -2.116,1.377 -3.393,1.819 l 0.343,1.426 c 0.049,0.247 0.296,0.442 0.739,0.442 2.065,0 5.704,-0.245 7.326,-0.589 0.591,-0.148 0.885,-0.542 0.885,-1.23 l -0.097,-2.557 v -3.146 c 0,-0.837 0.343,-1.231 1.18,-1.231 2.801,-0.049 9.441,0.051 12.243,0.149 z M -33.39,14.605 c 4.427,-0.737 8.999,-0.934 12.146,-0.934 0.542,0 0.837,-0.1 1.033,-0.492 0.443,-0.739 0.344,-2.507 -0.196,-3.049 -0.246,-0.246 -0.591,-0.295 -0.984,-0.295 -2.164,0 -5.851,-0.099 -7.966,-0.246 -0.589,-0.099 -0.934,-0.048 -1.278,0.198 -1.033,0.736 -2.361,2.261 -3.197,3.589 -0.147,0.246 -0.147,0.492 0,0.688 z m 7.671,-28.472 c -5.801,0 -10.521,3.147 -10.521,8.064 0,4.869 4.72,7.968 10.521,7.968 5.705,0 10.426,-3.099 10.426,-7.968 0,-4.966 -4.721,-8.064 -10.426,-8.064 m 8.507,21.834 c 1.525,-0.099 3.738,-0.394 4.672,-0.738 0.346,-0.147 0.591,-0.492 0.591,-0.886 0,-1.179 -0.639,-2.31 -1.131,-2.605 -0.936,0.146 -3.492,0.146 -4.623,0.146 -1.917,0 -13.276,-0.245 -15.145,-0.392 -0.984,-0.05 -2.852,-0.393 -3.787,-0.639 -1.524,0.737 -3.146,1.967 -4.228,3.098 -0.149,0.195 -0.198,0.392 -0.098,0.589 l 0.392,0.689 c 1.525,-0.246 3.689,-0.393 4.966,-0.393 2.116,-0.05 14.507,0.196 16.769,0.344 z"
           style="fill:#424242;fill-opacity:1;fill-rule:nonzero;stroke:none"
           id="path346" />
      </g>
      <g
         id="g348"
         transform="translate(412.4828,300.824)">
        <path
           d="m 0,0 c 0,-3.295 2.312,-5.459 5.558,-5.459 3.295,0 5.605,2.164 5.605,5.459 0,3.342 -2.31,5.506 -5.605,5.506 C 2.312,5.506 0,3.342 0,0 m -5.703,0 c 0,5.555 4.721,9.636 11.261,9.636 6.588,0 11.358,-4.081 11.358,-9.636 0,-5.656 -4.77,-9.738 -11.358,-9.738 -6.54,0 -11.261,4.082 -11.261,9.738 m 25.374,16.03 c 0.098,0.197 0.245,0.343 0.736,0.343 2.312,-0.097 6.098,-0.834 7.868,-1.573 0.54,-0.246 0.738,-0.689 0.738,-1.326 l -0.246,-3.001 v -29.061 c 0,-3.246 -0.689,-9.293 -1.869,-12.637 h -3.195 c -0.346,1.819 -0.591,8.556 -0.591,10.866 v 4.033 c -5.949,-1.377 -16.915,-2.902 -22.964,-3.245 -1.179,-0.099 -3.392,-0.542 -4.474,-0.984 -1.868,0.885 -4.081,2.458 -5.607,3.835 -0.196,0.246 -0.245,0.394 -0.147,0.639 l 0.393,0.837 c 1.967,-0.296 4.426,-0.443 6.343,-0.394 7.18,0.148 20.407,1.279 26.456,2.459 v 24.586 c -0.737,1.131 -2.261,2.213 -3.983,2.902 z"
           style="fill:#424242;fill-opacity:1;fill-rule:nonzero;stroke:none"
           id="path350" />
      </g>
      <g
         id="g352"
         transform="translate(483.1498,312.2815)">
        <path
           d="m 0,0 c -0.688,1.081 -2.163,2.163 -3.836,2.802 l 0.591,1.77 c 0.049,0.197 0.246,0.344 0.737,0.344 2.262,-0.098 6,-0.835 7.671,-1.574 C 5.705,3.097 5.9,2.654 5.852,2.016 L 5.705,-0.885 v -19.522 c 0,-3.59 -0.688,-8.902 -1.87,-11.852 H 0.64 c -0.246,1.082 -0.395,3.59 -0.541,5.951 -1.476,-0.099 -3.198,-0.247 -3.935,-0.394 -0.786,-0.099 -2.213,-0.442 -3.048,-0.738 -1.475,0.69 -2.655,1.524 -3.639,2.459 -0.196,0.196 -0.247,0.393 -0.147,0.639 l 0.392,0.738 c 1.132,-0.099 2.706,-0.147 4.033,-0.147 1.378,0.048 4.131,0.196 6.245,0.393 z m -22.57,-7.425 c 0,-3.001 2.31,-4.623 5.212,-4.623 2.852,0 5.212,1.622 5.212,4.623 0,2.999 -2.36,4.72 -5.212,4.72 -2.902,0 -5.212,-1.721 -5.212,-4.72 M 2.41,-37.226 c 1.722,0.049 4.13,-0.147 5.261,-0.393 0.542,-0.147 0.885,-0.491 0.885,-1.031 0,-1.379 -0.443,-2.362 -0.786,-2.705 -0.197,-0.197 -0.542,-0.296 -0.934,-0.296 l -21.489,-0.147 c -3.688,0 -5.163,1.475 -5.163,4.376 v 3.639 c -0.787,0.688 -2.115,1.376 -3.394,1.77 l 0.344,1.476 c 0.051,0.246 0.296,0.442 0.689,0.442 2.115,0 5.753,-0.245 7.375,-0.591 0.591,-0.147 0.886,-0.54 0.886,-1.228 l -0.098,-2.558 v -2.754 c 0,-0.884 0.343,-1.229 1.18,-1.229 3.098,-0.049 10.277,0 13.276,0.147 z m -30.488,29.801 c 0,5.212 4.917,8.408 10.72,8.408 5.754,0 10.72,-3.196 10.72,-8.408 0,-5.163 -4.966,-8.361 -10.72,-8.361 -5.803,0 -10.72,3.198 -10.72,8.361 m 8.31,-14.704 c -1.474,-0.197 -2.802,-0.295 -3.982,-0.394 -1.182,-0.049 -3.395,-0.589 -4.426,-0.983 -1.77,0.885 -3.787,2.262 -5.163,3.59 -0.197,0.197 -0.246,0.343 -0.148,0.64 l 0.393,0.785 c 1.771,-0.294 3.984,-0.392 5.803,-0.392 6.245,0.049 18.243,1.032 23.849,2.114 0.343,0.049 0.541,-0.049 0.59,-0.294 l 0.247,-1.477 c 0.048,-0.343 -0.1,-0.442 -0.394,-0.54 -2.656,-0.787 -6.885,-1.624 -11.064,-2.262 v -1.279 c 0,-2.016 -0.59,-4.671 -1.427,-5.999 h -3.639 c -0.393,1.131 -0.639,3.443 -0.639,4.869 z"
           style="fill:#424242;fill-opacity:1;fill-rule:nonzero;stroke:none"
           id="path354" />
      </g>
      <g
         id="g356"
         transform="translate(213.6547,261.1526)">
        <path
           d="m 0,0 c -0.013,-1.265 -0.013,-2.527 -0.013,-3.779 v -0.615 c 0,-1.263 0,-2.527 0.013,-3.779 l 1.201,-0.112 v -0.438 h -4.129 v 0.438 l 1.151,0.112 c 0.038,1.239 0.011,2.491 0.038,3.58 l 0.025,3.943 -3.055,-8.073 H -5.382 L -8.523,-0.7 c 0.038,-1.252 0.063,-2.917 0.063,-3.443 v -3.992 l 1.314,-0.15 V -8.723 H -10.4 v 0.438 l 1.327,0.15 0.05,8.085 -1.314,0.162 v 0.451 h 3.053 l 2.779,-7.057 2.703,7.057 H 1.201 V 0.112 Z"
           style="fill:#424242;fill-opacity:1;fill-rule:nonzero;stroke:none"
           id="path358" />
      </g>
      <g
         id="g360"
         transform="translate(221.4877,261.1526)">
        <path
           d="m 0,0 c -0.038,-1.251 -0.038,-2.503 -0.038,-3.779 v -0.615 c 0,-1.25 0,-2.527 0.038,-3.779 l 1.188,-0.112 v -0.438 h -4.18 v 0.438 l 1.189,0.112 c 0.025,1.239 0.025,2.504 0.025,3.779 v 0.615 c 0,1.252 0,2.514 -0.025,3.779 l -1.189,0.112 v 0.451 h 4.18 V 0.112 Z"
           style="fill:#424242;fill-opacity:1;fill-rule:nonzero;stroke:none"
           id="path362" />
      </g>
      <g
         id="g364"
         transform="translate(230.0521,252.9183)">
        <path
           d="M 0,0 C 2.003,0 3.129,1.539 3.129,4.154 3.129,6.846 2.003,8.31 0.088,8.31 H -0.764 C -0.802,7.045 -0.802,5.745 -0.802,4.418 V 4.005 c 0,-1.428 0,-2.73 0.038,-4.005 z m 0.275,8.798 c 2.916,0 4.695,-1.727 4.695,-4.63 0,-2.917 -1.915,-4.656 -4.919,-4.656 h -3.806 v 0.437 l 1.19,0.113 c 0.024,1.239 0.024,2.529 0.024,3.943 v 0.413 c 0,1.289 0,2.552 -0.024,3.816 l -1.19,0.113 v 0.451 z"
           style="fill:#424242;fill-opacity:1;fill-rule:nonzero;stroke:none"
           id="path366" />
      </g>
      <g
         id="g368"
         transform="translate(242.7631,255.8968)">
        <path
           d="M 0,0 -1.376,4.292 -2.703,0 Z m 3.768,-3.029 v -0.438 h -4.043 v 0.438 l 1.213,0.137 -0.787,2.428 h -2.992 l -0.737,-2.415 1.224,-0.15 v -0.438 h -2.927 v 0.438 l 1.076,0.15 2.853,8.736 h 1.09 l 2.99,-8.774 z"
           style="fill:#424242;fill-opacity:1;fill-rule:nonzero;stroke:none"
           id="path370" />
      </g>
      <g
         id="g372"
         transform="translate(253.5463,257.8235)">
        <path
           d="m 0,0 c 1.852,-0.801 2.528,-1.552 2.528,-2.903 0,-1.64 -1.29,-2.728 -3.454,-2.728 -1.04,0 -2.116,0.287 -2.815,0.737 l 0.074,2.079 h 0.7 l 0.526,-2.015 c 0.426,-0.188 0.827,-0.25 1.353,-0.25 1.275,0 2.051,0.6 2.051,1.64 0,0.875 -0.425,1.313 -1.527,1.776 l -0.576,0.25 c -1.577,0.688 -2.477,1.502 -2.477,2.941 0,1.653 1.351,2.591 3.242,2.591 0.976,0 1.776,-0.275 2.428,-0.702 L 1.965,1.451 H 1.264 L 0.737,3.38 c -0.286,0.138 -0.575,0.187 -0.938,0.187 -1.101,0 -1.863,-0.55 -1.863,-1.539 0,-0.877 0.511,-1.364 1.438,-1.765 z"
           style="fill:#424242;fill-opacity:1;fill-rule:nonzero;stroke:none"
           id="path374" />
      </g>
      <g
         id="g376"
         transform="translate(274.3559,252.8675)">
        <path
           d="M 0,0 V -0.437 H -3.829 V 0 l 1.002,0.101 -2.229,4.168 -1.101,-1.34 c 0,-0.851 0,-1.815 0.025,-2.817 L -5.031,0 V -0.437 H -9.048 V 0 l 1.19,0.112 c 0.024,1.24 0.024,2.504 0.024,3.78 v 0.614 c 0,1.252 0,2.514 -0.024,3.779 l -1.19,0.112 V 8.849 H -4.93 V 8.397 L -6.132,8.273 C -6.157,7.034 -6.157,5.77 -6.157,4.506 v -0.89 l 3.655,4.608 -1.202,0.173 v 0.452 h 3.217 V 8.397 L -1.789,8.224 -3.967,5.595 -0.938,0.088 Z"
           style="fill:#424242;fill-opacity:1;fill-rule:nonzero;stroke:none"
           id="path378" />
      </g>
      <g
         id="g380"
         transform="translate(281.3481,252.7044)">
        <path
           d="M 0,0 C 1.677,0 2.466,1.928 2.466,4.368 2.466,6.771 1.677,8.723 0,8.723 -1.677,8.723 -2.453,6.771 -2.453,4.368 -2.453,1.928 -1.677,0 0,0 m 4.318,4.368 c 0,-3.14 -2.04,-4.88 -4.318,-4.88 -2.277,0 -4.33,1.69 -4.33,4.88 0,3.13 2.064,4.869 4.33,4.869 2.278,0 4.318,-1.703 4.318,-4.869"
           style="fill:#424242;fill-opacity:1;fill-rule:nonzero;stroke:none"
           id="path382" />
      </g>
      <g
         id="g384"
         transform="translate(292.9701,257.26)">
        <path
           d="m 0,0 c 1.428,0 2.053,0.902 2.053,2.066 0,1.214 -0.677,1.902 -2.015,1.902 H -0.876 C -0.914,2.703 -0.914,1.439 -0.914,0 Z M 4.818,-4.393 V -4.83 C 4.417,-4.943 4.067,-4.993 3.517,-4.993 c -1.013,0 -1.552,0.289 -1.69,1.139 l -0.451,1.927 c -0.212,1.04 -0.563,1.464 -1.602,1.464 h -0.688 c 0,-1.313 0,-2.578 0.038,-3.817 L 0.338,-4.393 V -4.83 h -4.181 v 0.437 l 1.19,0.113 c 0.024,1.239 0.024,2.504 0.024,3.779 v 0.614 c 0,1.252 0,2.515 -0.024,3.78 l -1.19,0.112 v 0.451 h 4.231 c 2.14,0 3.341,-0.889 3.341,-2.378 0,-1.063 -0.738,-2.026 -2.565,-2.315 1.352,-0.188 1.789,-0.801 2.04,-1.965 l 0.514,-2.103 z"
           style="fill:#424242;fill-opacity:1;fill-rule:nonzero;stroke:none"
           id="path386" />
      </g>
      <g
         id="g388"
         transform="translate(308.2719,254.9456)">
        <path
           d="m 0,0 -0.038,-2.516 h -7.245 v 0.438 l 1.188,0.112 c 0.025,1.239 0.025,2.504 0.025,3.779 v 0.615 c 0,1.252 0,2.514 -0.025,3.779 L -7.283,6.319 V 6.77 h 6.996 L -0.275,4.317 H -0.951 L -1.427,6.244 H -4.292 C -4.33,5.018 -4.33,3.768 -4.33,2.452 h 1.877 l 0.187,1.364 h 0.589 V 0.663 H -2.266 L -2.441,1.978 H -4.33 c 0,-1.415 0,-2.705 0.038,-3.98 h 3.116 L -0.688,0 Z"
           style="fill:#424242;fill-opacity:1;fill-rule:nonzero;stroke:none"
           id="path390" />
      </g>
      <g
         id="g392"
         transform="translate(316.7279,255.8968)">
        <path
           d="M 0,0 -1.378,4.292 -2.705,0 Z m 3.766,-3.029 v -0.438 h -4.041 v 0.438 l 1.213,0.137 -0.789,2.428 h -2.992 l -0.737,-2.415 1.226,-0.15 v -0.438 h -2.928 v 0.438 l 1.076,0.15 2.854,8.736 h 1.088 l 2.992,-8.774 z"
           style="fill:#424242;fill-opacity:1;fill-rule:nonzero;stroke:none"
           id="path394" />
      </g>
      <g
         id="g396"
         transform="translate(332.8549,261.2649)">
        <path
           d="m 0,0 -1.152,-0.162 -0.062,-8.724 h -0.863 l -5.532,7.785 0.038,-7.134 1.601,-0.162 v -0.438 h -3.38 v 0.438 l 1.164,0.15 0.064,7.872 -0.201,0.263 L -9.273,0 v 0.451 h 2.64 L -1.728,-6.356 -1.765,-0.174 -3.38,0 V 0.451 H 0 Z"
           style="fill:#424242;fill-opacity:1;fill-rule:nonzero;stroke:none"
           id="path398" />
      </g>
      <g
         id="g400"
         transform="translate(352.2406,261.1526)">
        <path
           d="m 0,0 c -0.014,-1.265 -0.014,-2.527 -0.014,-3.779 v -0.615 c 0,-1.263 0,-2.527 0.014,-3.779 l 1.2,-0.112 v -0.438 h -4.129 v 0.438 l 1.151,0.112 c 0.038,1.239 0.011,2.491 0.038,3.58 l 0.025,3.943 -3.055,-8.073 h -0.613 l -3.14,8.023 c 0.038,-1.252 0.062,-2.917 0.062,-3.443 v -3.992 l 1.314,-0.15 V -8.723 H -10.4 v 0.438 l 1.326,0.15 0.05,8.085 -1.314,0.162 v 0.451 h 3.053 l 2.779,-7.057 2.703,7.057 H 1.2 V 0.112 Z"
           style="fill:#424242;fill-opacity:1;fill-rule:nonzero;stroke:none"
           id="path402" />
      </g>
      <g
         id="g404"
         transform="translate(364.3647,254.9456)">
        <path
           d="m 0,0 -0.038,-2.516 h -7.245 v 0.438 l 1.188,0.112 c 0.026,1.239 0.026,2.504 0.026,3.779 v 0.615 c 0,1.252 0,2.514 -0.026,3.779 L -7.283,6.319 V 6.77 h 6.996 L -0.275,4.317 H -0.95 L -1.427,6.244 H -4.292 C -4.33,5.018 -4.33,3.768 -4.33,2.452 h 1.877 l 0.187,1.364 h 0.589 V 0.663 H -2.266 L -2.441,1.978 H -4.33 c 0,-1.415 0,-2.705 0.038,-3.98 h 3.116 L -0.688,0 Z"
           style="fill:#424242;fill-opacity:1;fill-rule:nonzero;stroke:none"
           id="path406" />
      </g>
      <g
         id="g408"
         transform="translate(371.7065,252.9183)">
        <path
           d="M 0,0 C 2.002,0 3.129,1.539 3.129,4.154 3.129,6.846 2.002,8.31 0.088,8.31 H -0.763 C -0.801,7.045 -0.801,5.745 -0.801,4.418 V 4.005 c 0,-1.428 0,-2.73 0.038,-4.005 z m 0.275,8.798 c 2.915,0 4.693,-1.727 4.693,-4.63 0,-2.917 -1.915,-4.656 -4.918,-4.656 h -3.805 v 0.437 l 1.19,0.113 c 0.024,1.239 0.024,2.529 0.024,3.943 v 0.413 c 0,1.289 0,2.552 -0.024,3.816 l -1.19,0.113 v 0.451 z"
           style="fill:#424242;fill-opacity:1;fill-rule:nonzero;stroke:none"
           id="path410" />
      </g>
      <g
         id="g412"
         transform="translate(383.0414,261.1526)">
        <path
           d="m 0,0 c -0.038,-1.251 -0.038,-2.503 -0.038,-3.779 v -0.615 c 0,-1.25 0,-2.527 0.038,-3.779 l 1.188,-0.112 v -0.438 h -4.18 v 0.438 l 1.189,0.112 c 0.026,1.239 0.026,2.504 0.026,3.779 v 0.615 c 0,1.252 0,2.514 -0.026,3.779 l -1.189,0.112 v 0.451 h 4.18 V 0.112 Z"
           style="fill:#424242;fill-opacity:1;fill-rule:nonzero;stroke:none"
           id="path414" />
      </g>
      <g
         id="g416"
         transform="translate(395.31,252.9056)">
        <path
           d="m 0,0 c -0.801,-0.451 -1.701,-0.713 -2.791,-0.713 -2.777,0 -4.844,1.764 -4.844,4.88 0,3.13 2.216,4.869 4.894,4.869 0.99,0 1.803,-0.225 2.641,-0.702 L -0.124,6.17 H -0.839 L -1.39,8.31 c -0.361,0.151 -0.724,0.211 -1.126,0.211 -1.851,0 -3.253,-1.437 -3.253,-4.366 0,-2.953 1.376,-4.356 3.253,-4.356 0.427,0 0.815,0.077 1.228,0.239 l 0.551,2.114 h 0.725 z"
           style="fill:#424242;fill-opacity:1;fill-rule:nonzero;stroke:none"
           id="path418" />
      </g>
      <g
         id="g420"
         transform="translate(401.9145,261.1526)">
        <path
           d="m 0,0 c -0.038,-1.251 -0.038,-2.503 -0.038,-3.779 v -0.615 c 0,-1.25 0,-2.527 0.038,-3.779 l 1.188,-0.112 v -0.438 h -4.18 v 0.438 l 1.189,0.112 c 0.025,1.239 0.025,2.504 0.025,3.779 v 0.615 c 0,1.252 0,2.514 -0.025,3.779 l -1.189,0.112 v 0.451 h 4.18 V 0.112 Z"
           style="fill:#424242;fill-opacity:1;fill-rule:nonzero;stroke:none"
           id="path422" />
      </g>
      <g
         id="g424"
         transform="translate(415.9115,261.2649)">
        <path
           d="m 0,0 -1.153,-0.162 -0.062,-8.724 h -0.863 l -5.532,7.785 0.038,-7.134 1.601,-0.162 v -0.438 h -3.38 v 0.438 l 1.164,0.15 0.063,7.872 -0.201,0.263 L -9.273,0 v 0.451 h 2.639 L -1.729,-6.356 -1.765,-0.174 -3.38,0 V 0.451 H 0 Z"
           style="fill:#424242;fill-opacity:1;fill-rule:nonzero;stroke:none"
           id="path426" />
      </g>
      <g
         id="g428"
         transform="translate(426.6195,254.9456)">
        <path
           d="m 0,0 -0.038,-2.516 h -7.245 v 0.438 l 1.188,0.112 c 0.026,1.239 0.026,2.504 0.026,3.779 v 0.615 c 0,1.252 0,2.514 -0.026,3.779 L -7.283,6.319 V 6.77 h 6.996 L -0.275,4.317 H -0.951 L -1.427,6.244 H -4.292 C -4.33,5.018 -4.33,3.768 -4.33,2.452 h 1.877 l 0.187,1.364 h 0.589 V 0.663 H -2.266 L -2.441,1.978 H -4.33 c 0,-1.415 0,-2.705 0.038,-3.98 h 3.116 L -0.688,0 Z"
           style="fill:#424242;fill-opacity:1;fill-rule:nonzero;stroke:none"
           id="path430" />
      </g>
      <g
         id="g432"
         transform="translate(443.5258,252.9056)">
        <path
           d="m 0,0 c -0.802,-0.451 -1.702,-0.713 -2.791,-0.713 -2.778,0 -4.844,1.764 -4.844,4.88 0,3.13 2.216,4.869 4.894,4.869 0.99,0 1.803,-0.225 2.641,-0.702 L -0.125,6.17 H -0.84 l -0.55,2.14 c -0.361,0.151 -0.724,0.211 -1.126,0.211 -1.852,0 -3.254,-1.437 -3.254,-4.366 0,-2.953 1.376,-4.356 3.254,-4.356 0.426,0 0.814,0.077 1.227,0.239 l 0.551,2.114 h 0.726 z"
           style="fill:#424242;fill-opacity:1;fill-rule:nonzero;stroke:none"
           id="path434" />
      </g>
      <g
         id="g436"
         transform="translate(454.1957,255.1321)">
        <path
           d="m 0,0 -0.025,-2.702 h -7.033 l 0.012,0.437 1.177,0.113 c 0.025,1.239 0.025,2.479 0.025,3.555 v 0.838 c 0,1.252 0,2.515 -0.025,3.779 l -1.189,0.113 v 0.451 h 4.243 V 6.133 L -4.066,6.009 C -4.104,4.77 -4.104,3.518 -4.104,2.342 V 1.503 c 0,-1.164 0,-2.428 0.038,-3.691 h 2.852 L -0.675,0 Z"
           style="fill:#424242;fill-opacity:1;fill-rule:nonzero;stroke:none"
           id="path438" />
      </g>
      <g
         id="g440"
         transform="translate(460.6234,261.1526)">
        <path
           d="m 0,0 c -0.038,-1.251 -0.038,-2.503 -0.038,-3.779 v -0.615 c 0,-1.25 0,-2.527 0.038,-3.779 l 1.189,-0.112 v -0.438 h -4.18 v 0.438 l 1.189,0.112 c 0.025,1.239 0.025,2.504 0.025,3.779 v 0.615 c 0,1.252 0,2.514 -0.025,3.779 l -1.189,0.112 v 0.451 h 4.18 V 0.112 Z"
           style="fill:#424242;fill-opacity:1;fill-rule:nonzero;stroke:none"
           id="path442" />
      </g>
      <g
         id="g444"
         transform="translate(474.6205,261.2649)">
        <path
           d="m 0,0 -1.152,-0.162 -0.062,-8.724 h -0.863 l -5.532,7.785 0.038,-7.134 1.601,-0.162 v -0.438 h -3.379 v 0.438 l 1.164,0.15 0.063,7.872 -0.201,0.263 L -9.273,0 v 0.451 h 2.64 L -1.728,-6.356 -1.765,-0.174 -3.379,0 V 0.451 H 0 Z"
           style="fill:#424242;fill-opacity:1;fill-rule:nonzero;stroke:none"
           id="path446" />
      </g>
      <g
         id="g448"
         transform="translate(481.0375,261.1526)">
        <path
           d="m 0,0 c -0.038,-1.251 -0.038,-2.503 -0.038,-3.779 v -0.615 c 0,-1.25 0,-2.527 0.038,-3.779 l 1.188,-0.112 v -0.438 h -4.18 v 0.438 l 1.189,0.112 c 0.025,1.239 0.025,2.504 0.025,3.779 v 0.615 c 0,1.252 0,2.514 -0.025,3.779 l -1.189,0.112 v 0.451 h 4.18 V 0.112 Z"
           style="fill:#424242;fill-opacity:1;fill-rule:nonzero;stroke:none"
           id="path450" />
      </g>
      <g
         id="g452"
         transform="translate(493.308,252.9056)">
        <path
           d="m 0,0 c -0.802,-0.451 -1.703,-0.713 -2.791,-0.713 -2.779,0 -4.844,1.764 -4.844,4.88 0,3.13 2.215,4.869 4.894,4.869 0.988,0 1.803,-0.225 2.639,-0.702 L -0.126,6.17 H -0.84 l -0.55,2.14 c -0.363,0.151 -0.726,0.211 -1.126,0.211 -1.852,0 -3.255,-1.437 -3.255,-4.366 0,-2.953 1.377,-4.356 3.255,-4.356 0.424,0 0.813,0.077 1.226,0.239 l 0.55,2.114 h 0.726 z"
           style="fill:#424242;fill-opacity:1;fill-rule:nonzero;stroke:none"
           id="path454" />
      </g>
    </g>
  </g>
</svg>
